<svg width="40" height="41" viewBox="0 0 40 41" fill="none" xmlns="http://www.w3.org/2000/svg">
<g id="CartModal">
<path id="Shape" fill-rule="evenodd" clip-rule="evenodd" d="M27.2733 16.1113C26.7755 16.6093 26.1136 16.8834 25.4092 16.8834C24.7052 16.8834 24.0433 16.6093 23.5455 16.1113C23.0475 15.6135 22.7734 14.9516 22.7734 14.2476C22.7734 13.5435 23.0475 12.8816 23.5455 12.3835C24.5731 11.356 26.2454 11.356 27.2733 12.3835C27.771 12.8816 28.0453 13.5435 28.0453 14.2476C28.0453 14.9516 27.771 15.6135 27.2733 16.1113ZM25.4092 13.1746C25.1346 13.1746 24.8596 13.2792 24.6503 13.4886C24.4476 13.6912 24.3359 13.9607 24.3359 14.2476C24.3359 14.5341 24.4476 14.8039 24.6503 15.0065C24.8532 15.2092 25.1227 15.3209 25.4092 15.3209C25.6961 15.3209 25.9656 15.2092 26.1682 15.0065C26.3712 14.8039 26.4828 14.5341 26.4828 14.2476C26.4828 13.9607 26.3712 13.6912 26.1682 13.4886C25.9592 13.2792 25.6842 13.1746 25.4092 13.1746Z" fill="black"/>
<path id="Shape_2" fill-rule="evenodd" clip-rule="evenodd" d="M25.9247 21.9993C25.4614 22.4626 24.8526 22.6945 24.2438 22.6945C23.6352 22.6945 23.0264 22.4626 22.5632 21.9993C21.6363 21.0725 21.6363 19.5646 22.5632 18.6378C23.49 17.7113 24.9978 17.7113 25.9247 18.6378C26.8515 19.5646 26.8515 21.0725 25.9247 21.9993ZM24.2441 19.5045C24.0353 19.5045 23.8269 19.5839 23.6679 19.7426C23.3505 20.0602 23.3505 20.5769 23.6679 20.8946C23.9856 21.212 24.5025 21.2123 24.8199 20.8946C25.1376 20.5769 25.1376 20.0602 24.8199 19.7426C24.6612 19.5839 24.4525 19.5045 24.2441 19.5045Z" fill="black"/>
<path id="Shape_3" fill-rule="evenodd" clip-rule="evenodd" d="M20.1553 17.3488H19.0683C18.2211 17.3488 17.5317 16.6597 17.5317 15.8122V14.7255C17.5317 13.878 18.2211 13.1889 19.0683 13.1889H20.1553C21.0028 13.1889 21.6919 13.878 21.6919 14.7255V15.8122C21.6919 16.6597 21.0025 17.3488 20.1553 17.3488ZM20.1294 14.7514H19.0942V15.7863H20.1294V14.7514Z" fill="black"/>
<path id="Shape_4" fill-rule="evenodd" clip-rule="evenodd" d="M39.8727 34.2924L39.873 34.2924L39.8734 34.2921L34.9872 26.7921C34.8431 26.5712 34.5969 26.4375 34.3326 26.4375H27.8827L32.095 10.7173C32.3431 9.79077 32.0865 8.83252 31.4081 8.15411C30.73 7.47571 29.772 7.21906 28.8449 7.46747L10.3625 12.4199C9.38171 12.6826 8.57147 13.3604 8.13995 14.2793C7.70813 15.1985 7.70355 16.2547 8.12744 17.1776C9.74945 20.7069 12.0523 23.8481 14.8718 26.4375H6.36414V5.1875H33.5516V20.9688C33.5516 21.4003 33.9014 21.75 34.3329 21.75C34.7641 21.75 35.1141 21.4003 35.1141 20.9688V4.72974L36.2509 3.59326C36.3974 3.44647 36.4795 3.2478 36.4795 3.04059V1.28125C36.4795 0.849731 36.1298 0.5 35.6982 0.5H4.21722C3.78571 0.5 3.43597 0.849731 3.43597 1.28125V3.04059C3.43597 3.2478 3.51837 3.44647 3.66486 3.59326L4.80164 4.73004V26.9902L0.123291 34.2976H0.123901C0.0457764 34.4194 0 34.5637 0 34.7188V39.7188C0 40.1503 0.349731 40.5 0.78125 40.5H39.2188C39.6503 40.5 40 40.1503 40 39.7188V34.7188C40 34.5613 39.953 34.4151 39.8727 34.2924ZM29.2496 8.97656C29.3451 8.95093 29.4415 8.93842 29.537 8.93842C29.8212 8.93842 30.0946 9.05011 30.3036 9.25916C30.5823 9.53809 30.6879 9.93207 30.5859 10.3129L26.1322 26.934C25.64 26.5175 25.0034 26.2657 24.3088 26.2657H24.0546C23.219 26.2657 22.5394 25.59 22.5394 24.7599C22.5394 23.0681 21.1588 21.6917 19.4617 21.6917C18.6261 21.6917 17.9462 21.0161 17.9462 20.1857C17.9462 18.4938 16.5656 17.1174 14.8685 17.1174C14.0329 17.1174 13.3533 16.4421 13.3533 15.6117C13.3533 14.7795 13.0188 14.0242 12.4774 13.4709L29.2496 8.97656ZM9.55444 14.9437C9.31885 15.4454 9.31641 16.0215 9.54773 16.5251C12.2864 22.4855 17.077 27.2761 23.0371 30.0145C23.5406 30.2461 24.1171 30.2437 24.6185 30.0081C25.0546 29.8033 25.3909 29.4423 25.5655 28.9995C25.5231 28.3467 24.9762 27.8279 24.3085 27.8279H24.0543C22.3572 27.8279 20.9766 26.4515 20.9766 24.7596C20.9766 23.9293 20.2966 23.2539 19.4611 23.2539C17.764 23.2539 16.3834 21.8776 16.3834 20.1857C16.3834 19.3553 15.7037 18.6796 14.8682 18.6796C13.1711 18.6796 11.7902 17.3033 11.7902 15.6114C11.7902 14.7993 11.1398 14.1374 10.3296 14.1084C9.9939 14.2976 9.72168 14.5872 9.55444 14.9437ZM4.99847 2.0625H34.917V2.7171L34.0091 3.625H5.90637L4.99847 2.7171V2.0625ZM3.28125 32.375C3.25775 32.375 3.23456 32.3735 3.21167 32.3713L2.20917 33.9375H37.7774L33.9093 28H27.4643L27.1426 29.1996C26.8799 30.1805 26.2021 30.9907 25.2832 31.4222C24.819 31.6404 24.3201 31.7494 23.8208 31.7494C23.3316 31.7494 22.8421 31.6447 22.3853 31.4348C20.3598 30.504 18.4631 29.348 16.7242 28H6.01013L4.20959 30.8125H14.1437C14.5752 30.8125 14.9249 31.1622 14.9249 31.5938C14.9249 32.0253 14.5752 32.375 14.1437 32.375H3.28125ZM21.2598 35.5C20.9976 35.9211 20.5316 36.2031 20 36.2031C19.4684 36.2031 19.0024 35.9211 18.7402 35.5H21.2598ZM1.5625 35.5V38.9375H38.4375V35.5H22.9449C22.5989 36.8028 21.4102 37.7656 20 37.7656C18.5898 37.7656 17.4008 36.8028 17.0551 35.5H1.5625Z" fill="black"/>
<path id="Path" d="M18.0499 31.5938C18.0499 31.3884 17.9663 31.1866 17.821 31.0414C17.6758 30.8961 17.4744 30.8125 17.2687 30.8125C17.0633 30.8125 16.8616 30.8961 16.7163 31.0414C16.571 31.1866 16.4874 31.3884 16.4874 31.5938C16.4874 31.7991 16.571 32.0009 16.7163 32.1461C16.8616 32.2914 17.0633 32.375 17.2687 32.375C17.4744 32.375 17.6758 32.2914 17.821 32.1461C17.9663 32.0009 18.0499 31.7991 18.0499 31.5938Z" fill="black"/>
<path id="Path_2" d="M34.3329 23.3125C34.1272 23.3125 33.9258 23.3961 33.7805 23.5414C33.6353 23.6866 33.5516 23.8884 33.5516 24.0938C33.5516 24.2991 33.6353 24.5009 33.7805 24.6461C33.9258 24.7914 34.1272 24.875 34.3329 24.875C34.5383 24.875 34.74 24.7914 34.8853 24.6461C35.0305 24.5009 35.1141 24.2991 35.1141 24.0938C35.1141 23.8884 35.0305 23.6866 34.8853 23.5414C34.74 23.3961 34.5383 23.3125 34.3329 23.3125Z" fill="black"/>
</g>
</svg>
