<svg width="40" height="40" viewBox="0 0 40 40" fill="none" xmlns="http://www.w3.org/2000/svg">
<path fill-rule="evenodd" clip-rule="evenodd" d="M11.1616 11.0607C11.7473 10.4749 12.6971 10.4749 13.2829 11.0607L28.9393 26.7171C29.5251 27.3029 29.5251 28.2527 28.9393 28.8384L28.8384 28.9393C28.2526 29.5251 27.3029 29.5251 26.7171 28.9393L11.0607 13.2829C10.4749 12.6971 10.4749 11.7473 11.0607 11.1616L11.1616 11.0607Z" fill="black"/>
<path fill-rule="evenodd" clip-rule="evenodd" d="M28.8384 11.0607C28.2526 10.4749 27.3029 10.4749 26.7171 11.0607L11.0607 26.7171C10.4749 27.3029 10.4749 28.2527 11.0607 28.8384L11.1616 28.9393C11.7473 29.5251 12.6971 29.5251 13.2829 28.9393L28.9393 13.2829C29.5251 12.6971 29.5251 11.7473 28.9393 11.1616L28.8384 11.0607Z" fill="black"/>
</svg>
